<svg width="28" height="32" viewBox="0 0 28 32" fill="none" xmlns="http://www.w3.org/2000/svg">
<path fill-rule="evenodd" clip-rule="evenodd" d="M14 8C12.34 8 11 6.66 11 5C11 3.34 12.34 2 14 2C15.66 2 17 3.34 17 5C17 6.66 15.66 8 14 8ZM28 20C28 22.22 26.22 24 24 24H22C19.78 24 18 22.22 18 20L22 12H20C18.9 12 18 11.1 18 10H16V26C16.84 26 18 26.9 18 28H20C20.84 28 22 28.9 22 30H6C6 28.9 7.16 28 8 28H10C10 26.9 11.16 26 12 26H12.06L12 10H10C10 11.1 9.1 12 8 12H6L10 20C10 22.22 8.22 24 6 24H4C1.78 24 0 22.22 0 20L4 12H2V10H8C8 8.9 8.9 8 10 8H18C19.1 8 20 8.9 20 10H26V12H24L28 20ZM5 14L2 20H8L5 14ZM26 20L23 14L20 20H26Z" fill="#DB3832"/>
<path d="M2 20L5 14L8 20H2Z" fill="#FFFF54"/>
<path d="M20 20L23 14L26 20H20Z" fill="#FFFF54"/>
</svg>
